# xmcd
#
# Track frame offsets:
#	150
#	17868
#	39510
#	55513
#	72386
#	91848
#	109202
#	127548
#	144176
#	162513
#	180231
#	201873
#	217876
#	234749
#	254211
#	271565
#	289911
#	306539
#
# Disc length: 4331 seconds
#
# Revision: 1
# Processed by: cddbd v1.5.2PL0 Copyright (c) Steve Scherf et al.
# Submitted via: audiograbber 1.83.01
#
DISCID=fe10e912
DTITLE=Pop Hits Monthly Nasville  - PHN0803
DYEAR=2008
DGENRE=Country
TTITLE0=Rimes, Leann - Good Friend and A Glass Of Wine
TTITLE1=Rimes, Leann and Reba Mcentire - When You Love Someone Like That
TTITLE2=Swift, Taylor - Invisible
TTITLE3=Swift, Taylor - I'd Lie
TTITLE4=Rascal Flatts - She Goes All The Way
TTITLE5=Adkins, Trace - You're Gonna Miss This
TTITLE6=Rascal Flatts - Here
TTITLE7=Bentley, Dierks - Trying To Stop Your Leaving
TTITLE8=Lady Antebellum - Love Don't Live Here
TTITLE9=Rimes, Leann  - Good Friend and A Glass Of Wine (vocal)
TTITLE10=Rimes, Leann and Reba Mcentire  - When You Love Someone Like That (vocal
TTITLE10=)
TTITLE11=Swift, Taylor  - Invisible (vocal)
TTITLE12=Swift, Taylor  - I'd Lie (vocal)
TTITLE13=Rascal Flatts  - She Goes All The Way (vocal)
TTITLE14=Adkins, Trace  -  You're Gonna Miss This (vocal)
TTITLE15=Rascal Flatts - Here (vocal)
TTITLE16=Bentley, Dierks  - Trying To Stop Your Leaving (vocal)
TTITLE17=Lady Antebellum  - When You Love Someone Like That (vocal)
EXTD=fixed alnum tittle and fixed vocal listings
EXTT0=
EXTT1=
EXTT2=
EXTT3=
EXTT4=
EXTT5=
EXTT6=
EXTT7=
EXTT8=
EXTT9=
EXTT10=
EXTT11=
EXTT12=
EXTT13=
EXTT14=
EXTT15=
EXTT16=
EXTT17=
PLAYORDER=
